<svg xmlns="http://www.w3.org/2000/svg" viewBox="0 0 291.37 98.28"><defs><style>.cls-1{fill:#00f9ff;}.cls-2{font-size:36px;fill:#00edff;font-family:PlanetKosmos, Planet Kosmos;}.cls-3{fill:#fff;letter-spacing:0em;}</style></defs><g id="Layer_2" data-name="Layer 2"><g id="Layer_1-2" data-name="Layer 1"><path class="cls-1" d="M178.07,98c.73-.48,1.38-.94,2.06-1.34,6.34-3.79,12.61-7.68,18.65-12a131.73,131.73,0,0,0,12.69-10c1.78-1.61,3.48-3.31,5.12-5.06a9.41,9.41,0,0,1,7.35-3.19c.64,0,1.28.07,1.92.1l.92.07c0-.31,0-.58,0-.85a9.49,9.49,0,0,1,.52-3.34,6.59,6.59,0,0,1,2.16-3.05,2.13,2.13,0,0,0,.85-2.13q-.6-5.87-1.09-11.76c-.35-4-.44-8.12-.43-12.19a118.79,118.79,0,0,1,1-15.31,85,85,0,0,1,3.62-16.06A12.65,12.65,0,0,1,233.94.5c.09-.2.12-.57.49-.49s.21.39.21.6c.06,1.61.11,3.21.15,4.81.12,4.95.29,9.89.65,14.83.4,5.44,1,10.86,1.92,16.25a71.79,71.79,0,0,0,2.53,10.73,9.66,9.66,0,0,1-1.49,9.19c-.29.39-.57.79-.89,1.23.35.23.64.44,1,.62a7.4,7.4,0,0,1,3.93,5.41,2.27,2.27,0,0,0,1.5,1.77c2.55,1.12,5.1,2.23,7.62,3.4A152.43,152.43,0,0,1,271,79.55a91.34,91.34,0,0,1,15.67,12.74c1.29,1.32,2.62,2.58,3.92,3.9a6.12,6.12,0,0,1,.79,1.08c.07.1,0,.28,0,.56-.67-.32-1.21-.55-1.73-.83-4.11-2.21-8.19-4.48-12.33-6.61A172.23,172.23,0,0,0,255.9,81a65.08,65.08,0,0,0-9-2.53,8,8,0,0,1-4.64-2.79,13.82,13.82,0,0,1-2.09-3.53c-.09-.23-.2-.46-.32-.74l-1.16.62a7.69,7.69,0,0,1-4.37,1,6.46,6.46,0,0,1-1.75-.34,2.89,2.89,0,0,0-2.94.51q-6,4.55-12.3,8.63a128.67,128.67,0,0,1-22.09,11.57A97.24,97.24,0,0,1,185,96.73l-4.88,1.36a2.54,2.54,0,0,1-1.76,0A2.76,2.76,0,0,1,178.07,98Z"/><text class="cls-2" transform="translate(0 67.8)">SKY<tspan class="cls-3" x="89.35" y="0">SHOP</tspan></text></g></g></svg>